<?xml version="1.0" encoding="UTF-8" standalone="no"?>
<!DOCTYPE svg PUBLIC "-//W3C//DTD SVG 1.1//EN" "http://www.w3.org/Graphics/SVG/1.1/DTD/svg11.dtd">
<svg version="1.1" xmlns="http://www.w3.org/2000/svg" xmlns:xlink="http://www.w3.org/1999/xlink" preserveAspectRatio="xMidYMid meet" viewBox="319 21.792929292929273 260.0922585050339 200.55297575801072" width="256.09" height="196.55"><defs><path d="M320 64.79L350 64.79L350 22.79L506 22.79L506 202.79L350 202.79L350 172.79L320 172.79L320 172.79L320 64.79ZM476 76.79L476 88.79L428 88.79L428 100.79L476 100.79L476 112.79L428 112.79L428 124.79L476 124.79L476 136.79L428 136.79L428 172.79L362 172.79L362 190.79L494 190.79L494 34.79L362 34.79L362 64.79L428 64.79L428 76.79L428 76.79L476 76.79ZM374 130.79L382.1 142.79L398 142.79L382.1 118.79L398 94.79L382.1 94.79L374 106.79L365.9 94.79L350 94.79L365.9 118.79L350 142.79L365.9 142.79L365.9 142.79L374 130.79Z" id="a54Ois1mf4"></path><path d="M543.31 157.87L543.31 112.79L494.13 112.79L494.13 157.87L461.34 157.87L518.72 219.35L576.09 157.87L543.31 157.87Z" id="l3w639ecTv"></path></defs><g><g><use xlink:href="#a54Ois1mf4" opacity="1" fill="#000000" fill-opacity="1"></use><g><use xlink:href="#a54Ois1mf4" opacity="1" fill-opacity="0" stroke="#000000" stroke-width="1" stroke-opacity="0"></use></g></g><g><use xlink:href="#l3w639ecTv" opacity="1" fill="#000000" fill-opacity="1"></use><g><use xlink:href="#l3w639ecTv" opacity="1" fill-opacity="0" stroke="#000000" stroke-width="1" stroke-opacity="0"></use></g></g></g></svg>