<?xml version="1.0" encoding="UTF-8" standalone="no"?>
<!DOCTYPE svg PUBLIC "-//W3C//DTD SVG 1.1//EN" "http://www.w3.org/Graphics/SVG/1.1/DTD/svg11.dtd">
<svg version="1.1" xmlns="http://www.w3.org/2000/svg" xmlns:xlink="http://www.w3.org/1999/xlink" preserveAspectRatio="xMidYMid meet" viewBox="20.679487179487072 21.792929292929273 259.87467925431355 200.5529757580107" width="255.87" height="196.55"><defs><path d="M21.68 64.79L51.68 64.79L51.68 22.79L207.68 22.79L207.68 202.79L51.68 202.79L51.68 172.79L21.68 172.79L21.68 172.79L21.68 64.79ZM177.68 76.79L177.68 88.79L129.68 88.79L129.68 100.79L177.68 100.79L177.68 112.79L129.68 112.79L129.68 124.79L177.68 124.79L177.68 136.79L129.68 136.79L129.68 172.79L63.68 172.79L63.68 190.79L195.68 190.79L195.68 34.79L63.68 34.79L63.68 64.79L129.68 64.79L129.68 76.79L129.68 76.79L177.68 76.79ZM75.68 130.79L83.78 142.79L99.68 142.79L83.78 118.79L99.68 94.79L83.78 94.79L75.68 106.79L67.58 94.79L51.68 94.79L67.58 118.79L51.68 142.79L67.58 142.79L67.58 142.79L75.68 130.79Z" id="b2k3yyNDay"></path><path d="M244.77 174.27L244.77 219.35L195.59 219.35L195.59 174.27L162.8 174.27L220.18 112.79L277.55 174.27L244.77 174.27Z" id="b1rKz87dem"></path></defs><g><g><use xlink:href="#b2k3yyNDay" opacity="1" fill="#000000" fill-opacity="1"></use><g><use xlink:href="#b2k3yyNDay" opacity="1" fill-opacity="0" stroke="#000000" stroke-width="1" stroke-opacity="0"></use></g></g><g><use xlink:href="#b1rKz87dem" opacity="1" fill="#000000" fill-opacity="1"></use><g><use xlink:href="#b1rKz87dem" opacity="1" fill-opacity="0" stroke="#000000" stroke-width="1" stroke-opacity="0"></use></g></g></g></svg>